# xmcd CD database file
#
# Track frame offsets:
#	150
#	13473
#	24085
#	35618
#	45771
#	59465
#	71654
#	85595
#	96792
#	109101
#	120658
#	132048
#
# Disc length: 1951 seconds
#
# Revision: 0
# Processed by: cddbd v1.5.2PL0 Copyright (c) Steve Scherf et al.
# Submitted via: CDex 1.70beta2
#
DISCID=92079d0c
DTITLE=Adderley, Julian Cannonball - You Are Too Beautiful
DYEAR=1955
DGENRE=Jazz
TTITLE0=You're Too Beautiful
TTITLE1=I've Never Been In Love Before
TTITLE2=Falling In Love With Love
TTITLE3=Street Of Dreams
TTITLE4=Two Sleepy People
TTITLE5=I'll Will Never Stop Loving You
TTITLE6=Polka Dots And Mondbeams
TTITLE7=I Cover The Waterfront
TTITLE8=A Foggy Day
TTITLE9=The Surey With the Fringe On Top
TTITLE10=Lonely Dreams
TTITLE11=The Masquerade Is Over
EXTD=YEAR: 1955
EXTT0=
EXTT1=
EXTT2=
EXTT3=
EXTT4=
EXTT5=
EXTT6=
EXTT7=
EXTT8=
EXTT9=
EXTT10=
EXTT11=
PLAYORDER=
